HIERARCHY
ROOT Hips
{
 OFFSET 0.000000 0.000000 0.000000
 CHANNELS 6 Xposition Yposition Zposition Yrotation Xrotation Zrotation
 JOINT Chest
 {
  OFFSET 0.000000 9.910571 -0.011835
  CHANNELS 3 Yrotation Xrotation Zrotation
  JOINT Chest2
  {
   OFFSET 0.000000 10.789473 0.021497
   CHANNELS 3 Yrotation Xrotation Zrotation
   JOINT Chest3
   {
    OFFSET 0.000000 9.748205 0.000000
    CHANNELS 3 Yrotation Xrotation Zrotation
    JOINT Chest4
    {
     OFFSET 0.000000 9.748205 0.000000
     CHANNELS 3 Yrotation Xrotation Zrotation
     JOINT Neck
     {
      OFFSET 0.000000 13.998479 0.000000
      CHANNELS 3 Yrotation Xrotation Zrotation
      JOINT Head
      {
       OFFSET 0.000000 9.082285 0.051121
       CHANNELS 3 Yrotation Xrotation Zrotation
       End Site
       {
        OFFSET 0.000000 17.246134 0.026702
       }
      }
     }
     JOINT RightCollar
     {
      OFFSET -3.284495 7.824262 0.000000
      CHANNELS 3 Yrotation Xrotation Zrotation
      JOINT RightShoulder
      {
       OFFSET -15.534540 0.000000 0.000000
       CHANNELS 3 Yrotation Xrotation Zrotation
       JOINT RightElbow
       {
        OFFSET 0.000000 -28.251216 0.000000
        CHANNELS 3 Yrotation Xrotation Zrotation
        JOINT RightWrist
        {
         OFFSET 0.000000 -23.418114 0.012537
         CHANNELS 3 Yrotation Xrotation Zrotation
         End Site
         {
          OFFSET 0.000000 -17.723959 0.000000
         }
        }
       }
      }
     }
     JOINT LeftCollar
     {
      OFFSET 3.284495 7.824262 0.000000
      CHANNELS 3 Yrotation Xrotation Zrotation
      JOINT LeftShoulder
      {
       OFFSET 15.534540 0.000000 0.000000
       CHANNELS 3 Yrotation Xrotation Zrotation
       JOINT LeftElbow
       {
        OFFSET 0.000000 -28.251216 0.000000
        CHANNELS 3 Yrotation Xrotation Zrotation
        JOINT LeftWrist
        {
         OFFSET 0.000000 -23.418114 0.012537
         CHANNELS 3 Yrotation Xrotation Zrotation
         End Site
         {
          OFFSET 0.000000 -17.723959 0.000000
         }
        }
       }
      }
     }
    }
   }
  }
 }
 JOINT RightHip
 {
  OFFSET -8.142657 0.057990 0.005917
  CHANNELS 3 Yrotation Xrotation Zrotation
  JOINT RightKnee
  {
   OFFSET 0.000000 -49.716894 0.008478
   CHANNELS 3 Yrotation Xrotation Zrotation
   JOINT RightAnkle
   {
    OFFSET 0.000000 -43.994153 0.004166
    CHANNELS 3 Yrotation Xrotation Zrotation
    JOINT RightToe
    {
     OFFSET 0.000000 -7.619154 17.822051
     CHANNELS 3 Yrotation Xrotation Zrotation
     End Site
     {
      OFFSET 0.000000 -1.595627 7.159905
     }
    }
   }
  }
 }
 JOINT LeftHip
 {
  OFFSET 8.142657 0.057990 0.005917
  CHANNELS 3 Yrotation Xrotation Zrotation
  JOINT LeftKnee
  {
   OFFSET 0.000000 -49.716894 0.008478
   CHANNELS 3 Yrotation Xrotation Zrotation
   JOINT LeftAnkle
   {
    OFFSET 0.000000 -43.994153 0.004166
    CHANNELS 3 Yrotation Xrotation Zrotation
    JOINT LeftToe
    {
     OFFSET 0.000000 -7.619154 17.822051
     CHANNELS 3 Yrotation Xrotation Zrotation
     End Site
     {
      OFFSET 0.000000 -1.595627 7.159905
     }
    }
   }
  }
 }
}
MOTION
Frames: 5
Frame Time: 0.008333
245.866688 56.901514 256.022634 -56.457310 -54.317999 2.911233 -1.470503 22.779047 -1.273293 -0.478012 10.099461 -0.646580 -0.478012 10.099461 -0.646580 -0.346791 7.575115 -0.475698 3.489302 17.048219 2.370322 5.631449 -4.545621 3.171023 0.016253 9.116503 11.120950 48.996803 -32.859680 -37.501811 7.755800 -6.380768 -7.663514 17.195690 -14.106111 -51.279189 -0.459839 6.750698 -10.071017 -29.249306 -36.321921 29.731493 -19.604792 -13.993078 11.080392 -28.748401 -11.000136 46.305373 -12.032669 -30.176162 -6.950476 -123.221385 70.508771 -139.300216 -5.611542 -18.108357 6.230156 0.066121 0.549434 0.018626 7.995914 -32.407968 7.983722 148.849730 79.440557 153.895127 2.266583 -9.841724 -2.287451 -0.168997 -0.378497 -0.070141
245.868647 56.903540 256.022513 -56.454770 -54.314574 2.905930 -1.479512 22.783489 -1.271266 -0.480459 10.101981 -0.646225 -0.480459 10.101981 -0.646225 -0.348624 7.577007 -0.475390 3.492679 17.048669 2.364057 5.639883 -4.544606 3.158268 0.029161 9.094369 11.104198 49.002534 -32.852000 -37.494559 7.752277 -6.366498 -7.662995 17.192572 -14.080284 -51.280534 -0.445034 6.731075 -10.080230 -29.226667 -36.330406 29.714458 -19.571263 -14.026313 11.045806 -28.796480 -10.965896 46.331217 -12.034954 -30.174723 -6.949336 -123.212183 70.513574 -139.287310 -5.611126 -18.108628 6.233042 0.063069 0.554154 0.016684 7.996219 -32.414051 7.989541 148.853802 79.441042 153.897721 2.259650 -9.834962 -2.284740 -0.164445 -0.384447 -0.067591
245.870744 56.905901 256.024703 -56.449839 -54.316160 2.903923 -1.485268 22.783584 -1.272343 -0.481830 10.100592 -0.645909 -0.481830 10.100592 -0.645909 -0.349656 7.575967 -0.475132 3.492284 17.056037 2.360186 5.640492 -4.530833 3.151442 0.032500 9.097879 11.094029 49.033063 -32.834569 -37.493423 7.722145 -6.351190 -7.669357 17.193265 -14.065393 -51.251067 -0.449802 6.729997 -10.085934 -29.196640 -36.331947 29.700637 -19.567051 -14.023176 11.052428 -28.816149 -10.969070 46.343212 -12.032748 -30.168736 -6.955307 -123.218063 70.518823 -139.289190 -5.617487 -18.112832 6.235327 0.064452 0.560154 0.018717 7.999735 -32.411210 7.985397 148.805543 79.437240 153.848153 2.248592 -9.837565 -2.280741 -0.168753 -0.383750 -0.066405
245.872712 56.909055 256.026294 -56.453571 -54.320909 2.907582 -1.494041 22.778353 -1.274584 -0.484663 10.098937 -0.646398 -0.484663 10.098937 -0.646398 -0.351769 7.574729 -0.475452 3.495898 17.066480 2.353464 5.649506 -4.511254 3.138033 0.047276 9.110643 11.076253 49.052687 -32.827120 -37.493625 7.684060 -6.343467 -7.666336 17.187898 -14.030144 -51.205015 -0.437262 6.738336 -10.100163 -29.197868 -36.319550 29.702127 -19.529819 -14.048256 11.033690 -28.854350 -10.928209 46.366473 -12.025888 -30.161373 -6.962181 -123.219682 70.524261 -139.285624 -5.618228 -18.109931 6.234126 0.063774 0.561160 0.020316 8.002997 -32.404136 7.990567 148.795645 79.439159 153.831161 2.236957 -9.836026 -2.273933 -0.168101 -0.386384 -0.065171
245.875104 56.911079 256.029147 -56.448948 -54.321649 2.909432 -1.499459 22.773088 -1.275683 -0.485870 10.097537 -0.646817 -0.485870 10.097537 -0.646817 -0.352667 7.573680 -0.475747 3.492162 17.075133 2.349012 5.644130 -4.495100 3.131331 0.059375 9.123585 11.063369 49.066043 -32.822862 -37.491818 7.646362 -6.341138 -7.671856 17.191775 -13.976035 -51.155631 -0.445344 6.746868 -10.104382 -29.199727 -36.309836 29.700237 -19.510802 -14.036541 11.056659 -28.856310 -10.934725 46.363431 -12.022656 -30.158201 -6.970787 -123.220855 70.529417 -139.288489 -5.619639 -18.109148 6.237853 0.059524 0.563204 0.021949 8.008799 -32.404639 7.986919 148.799568 79.437551 153.829844 2.224792 -9.832521 -2.265299 -0.167844 -0.392245 -0.063927
